<?xml version="1.0" encoding="UTF-8"?>
<svg width="160pt" version="1.1" xmlns="http://www.w3.org/2000/svg" height="90pt" viewBox="0 0 160 90" xmlns:xlink="http://www.w3.org/1999/xlink">
 <defs>
  <clipPath id="Clip0">
   <path d="M0 0 L150.362 0 L150.362 78.264 L0 78.264 L0 0 Z" transform="translate(5.25, 5)"/>
  </clipPath>
 </defs>
 <g id="Background">
  <g clip-path="url(#Clip0)">
   <path style="fill:none;stroke:#000000; stroke-width:0.599988; stroke-linecap:round; stroke-linejoin:miter; stroke-dasharray:none;" d="M0 0 L0 13.92 " transform="translate(20.1386, 29.623)"/>
   <path style="fill:none;stroke:#000000; stroke-width:0.599988; stroke-linecap:round; stroke-linejoin:miter; stroke-dasharray:none;" d="M0 0 L12 6.841 " transform="translate(20.1386, 43.543)"/>
   <path style="fill:none;stroke:#000000; stroke-width:0.599988; stroke-linecap:round; stroke-linejoin:miter; stroke-dasharray:none;" d="M0 6.841 L12 0 " transform="translate(32.1386, 43.543)"/>
   <path style="fill:none;stroke:#000000; stroke-width:0.599988; stroke-linecap:round; stroke-linejoin:miter; stroke-dasharray:none;" d="M0 13.92 L0 0 " transform="translate(44.1386, 29.623)"/>
   <path style="fill:none;stroke:#000000; stroke-width:0.599988; stroke-linecap:round; stroke-linejoin:miter; stroke-dasharray:none;" d="M12 6.839 L0 0 " transform="translate(32.1386, 22.784)"/>
   <path style="fill:none;stroke:#000000; stroke-width:0.599988; stroke-linecap:round; stroke-linejoin:miter; stroke-dasharray:none;" d="M9 5.16 L0 0 " transform="translate(32.3789, 25.784)"/>
   <path style="fill:none;stroke:#000000; stroke-width:0.599988; stroke-linecap:round; stroke-linejoin:miter; stroke-dasharray:none;" d="M0 6.839 L12 0 " transform="translate(20.1386, 22.784)"/>
   <path style="fill:#161413; fill-rule:evenodd;stroke:none;" d="M5.043 4.352 L5.9883 4.555 C5.7578 5.325 5.4687 5.878 4.9844 6.274 C4.458 6.698 3.915 6.864 3.2226 6.864 C2.458 6.864 1.9101 6.719 1.457 6.43 C0.9707 6.2 0.6621 5.717 0.4258 5.164 C0.166 4.679 0.0742 4.019 0.0742 3.383 C0 2.768 0.2041 2.088 0.4648 1.575 C0.6875 1.075 1.0957 0.671 1.5781 0.403 C1.9844 0.205 2.5879 0 3.1641 0 C3.7988 0.038 4.3721 0.18 4.8203 0.539 C5.1953 0.921 5.5791 1.398 5.7539 2.043 L4.8086 2.231 C4.5937 1.83 4.4502 1.461 4.1719 1.258 C3.8691 1.088 3.543 0.95 3.1211 0.95 C2.6299 1.004 2.2314 1.063 1.9062 1.289 C1.5625 1.541 1.3516 1.821 1.2187 2.203 C1.0469 2.637 1.0195 2.976 1.0195 3.379 C0.9629 3.984 1.0996 4.364 1.2617 4.754 C1.3691 5.179 1.6758 5.434 2.0195 5.629 C2.3066 5.901 2.7344 5.918 3.1328 5.918 C3.6035 5.984 4.0234 5.787 4.3594 5.524 C4.6953 5.291 4.9258 4.87 5.043 4.352 Z" transform="translate(29.1777, 5)"/>
   <path style="fill:#161413; fill-rule:evenodd;stroke:none;" d="M0 6.864 L0 0 L0.9453 0 L0.9453 2.606 L4.4961 2.606 L4.4961 0 L5.4414 0 L5.4414 6.864 L4.4961 6.864 L4.4961 3.551 L0.9453 3.551 L0.9453 6.864 L0 6.864 Z" transform="translate(37.4101, 5)"/>
   <path style="fill:#161413; fill-rule:evenodd;stroke:none;" d="M0 3.773 L0.7188 3.773 C0.7549 4.092 0.8731 4.213 0.9961 4.324 C1.083 4.482 1.3174 4.492 1.5938 4.492 C1.8438 4.565 2.1446 4.4 2.293 4.215 C2.3906 4.112 2.5156 3.801 2.5156 3.527 C2.4737 3.331 2.4336 3.055 2.2696 2.883 C2.0625 2.737 1.8955 2.625 1.6406 2.625 C1.5362 2.654 1.4072 2.648 1.2539 2.695 L1.3125 2.156 C1.291 2.178 1.376 2.16 1.3946 2.16 C1.5879 2.178 1.7656 2.101 1.9219 1.98 C2.0674 1.935 2.1563 1.67 2.1563 1.414 C2.1504 1.229 2.0918 1.049 1.9649 0.918 C1.8125 0.8 1.6729 0.719 1.4727 0.719 C1.2442 0.8 1.1055 0.765 0.9727 0.855 C0.8125 0.979 0.7549 1.078 0.7188 1.258 L0 1.258 C0.0362 0.928 0.2383 0.551 0.4961 0.332 C0.7188 0.154 1.0742 0 1.4571 0 C1.6973 0.07 1.9629 0.06 2.1875 0.18 C2.3955 0.308 2.5821 0.459 2.6992 0.664 C2.7969 0.886 2.875 1.089 2.875 1.32 C2.7969 1.589 2.8145 1.742 2.6953 1.922 C2.5567 2.115 2.3985 2.245 2.1641 2.352 C2.461 2.459 2.7227 2.568 2.9258 2.789 C3.1192 3.065 3.2344 3.281 3.2344 3.609 C3.2031 4.092 3.0762 4.436 2.7617 4.746 C2.4082 5.128 2.0518 5.211 1.5703 5.211 C1.0781 5.211 0.7783 5.078 0.4922 4.812 C0.1719 4.594 0.041 4.198 0 3.773 Z" transform="translate(44.6181, 8.933)"/>
   <path style="fill:none;stroke:#000000; stroke-width:0.599988; stroke-linecap:round; stroke-linejoin:miter; stroke-dasharray:none;" d="M0 9.36 L0 0 " transform="translate(32.1386, 13.424)"/>
   <path style="fill:none;stroke:#000000; stroke-width:0.599988; stroke-linecap:round; stroke-linejoin:miter; stroke-dasharray:none;" d="M0 0 L11.8802 6.841 " transform="translate(44.1386, 43.543)"/>
   <path style="fill:none;stroke:#000000; stroke-width:0.599988; stroke-linecap:round; stroke-linejoin:miter; stroke-dasharray:none;" d="M0 13.8 L0 0 " transform="translate(56.0188, 50.384)"/>
   <path style="fill:none;stroke:#000000; stroke-width:0.599988; stroke-linecap:round; stroke-linejoin:miter; stroke-dasharray:none;" d="M0 10.319 L0 0 " transform="translate(58.5388, 52.184)"/>
   <path style="fill:#161413; fill-rule:evenodd;stroke:none;" d="M0.0742 3.52 C0 2.45 0.3711 1.557 0.9648 0.934 C1.5234 0.372 2.33 0 3.2734 0 C3.83 0.039 4.4423 0.148 4.9375 0.442 C5.4062 0.792 5.8134 1.141 6.0742 1.665 C6.2597 2.254 6.4648 2.782 6.4648 3.446 C6.4267 4.174 6.3261 4.719 6.0507 5.25 C5.7109 5.82 5.3886 6.184 4.8867 6.458 C4.375 6.781 3.8476 6.864 3.2695 6.864 C2.5859 6.864 2.0791 6.713 1.582 6.411 C1.0097 6.176 0.7119 5.698 0.457 5.176 C0.166 4.718 0.0742 4.104 0.0742 3.52 Z M1.0195 3.524 C0.9628 4.296 1.2324 4.851 1.6601 5.278 C2.0673 5.734 2.622 5.918 3.2656 5.918 C3.8671 5.984 4.4609 5.703 4.8828 5.27 C5.2939 4.87 5.5156 4.227 5.5156 3.438 C5.4609 2.995 5.4238 2.499 5.2421 2.125 C5.0156 1.833 4.7978 1.464 4.4492 1.258 C4.0673 1.088 3.7089 0.95 3.2773 0.95 C2.6015 1.004 2.1289 1.148 1.6836 1.543 C1.2128 1.96 1.0195 2.597 1.0195 3.524 Z" transform="translate(40.9375, 67.16)"/>
   <path style="fill:none;stroke:#000000; stroke-width:0.599988; stroke-linecap:round; stroke-linejoin:miter; stroke-dasharray:none;" d="M0 4.08 L6.8401 0 " transform="translate(49.1787, 64.184)"/>
   <path style="fill:none;stroke:#000000; stroke-width:0.599988; stroke-linecap:round; stroke-linejoin:miter; stroke-dasharray:none;" d="M0 0 L6.3604 3.72 " transform="translate(32.1386, 64.184)"/>
   <path style="fill:none;stroke:#000000; stroke-width:0.599988; stroke-linecap:round; stroke-linejoin:miter; stroke-dasharray:none;" d="M0 0 L0 13.8 " transform="translate(32.1386, 50.384)"/>
   <path style="fill:#161413; fill-rule:evenodd;stroke:none;" d="M5.043 4.352 L5.9883 4.555 C5.7578 5.325 5.4688 5.878 4.9844 6.274 C4.458 6.698 3.9151 6.864 3.2227 6.864 C2.458 6.864 1.9102 6.719 1.4571 6.43 C0.9707 6.2 0.6621 5.717 0.4258 5.165 C0.166 4.679 0.0743 4.019 0.0743 3.383 C0 2.768 0.2041 2.088 0.4649 1.575 C0.6875 1.075 1.0957 0.671 1.5782 0.403 C1.9844 0.206 2.5879 0 3.1641 0 C3.7989 0.039 4.3721 0.18 4.8203 0.54 C5.1953 0.921 5.5791 1.398 5.7539 2.043 L4.8086 2.231 C4.5938 1.831 4.4502 1.461 4.1719 1.258 C3.8692 1.088 3.543 0.95 3.1211 0.95 C2.6299 1.004 2.2315 1.063 1.9063 1.29 C1.5625 1.542 1.3516 1.821 1.2188 2.204 C1.0469 2.637 1.0196 2.976 1.0196 3.379 C0.9629 3.984 1.0996 4.364 1.2618 4.754 C1.3692 5.179 1.6758 5.434 2.0196 5.629 C2.3067 5.901 2.7344 5.918 3.1328 5.918 C3.6035 5.984 4.0235 5.788 4.3594 5.524 C4.6953 5.292 4.9258 4.871 5.043 4.352 Z" transform="translate(17.2968, 67.16)"/>
   <path style="fill:#161413; fill-rule:evenodd;stroke:none;" d="M0 6.864 L0 0 L0.9453 0 L0.9453 2.606 L4.4961 2.606 L4.4961 0 L5.4414 0 L5.4414 6.864 L4.4961 6.864 L4.4961 3.551 L0.9453 3.551 L0.9453 6.864 L0 6.864 Z" transform="translate(5.25, 67.16)"/>
   <path style="fill:#161413; fill-rule:evenodd;stroke:none;" d="M0 3.774 L0.7187 3.774 C0.7548 4.092 0.873 4.213 0.9961 4.324 C1.083 4.483 1.3173 4.492 1.5937 4.492 C1.8437 4.566 2.1445 4.4 2.2929 4.215 C2.3906 4.112 2.5156 3.801 2.5156 3.527 C2.4736 3.331 2.4336 3.055 2.2695 2.883 C2.0625 2.737 1.8955 2.625 1.6406 2.625 C1.5361 2.654 1.4072 2.649 1.2539 2.695 L1.3125 2.156 C1.291 2.178 1.3759 2.16 1.3945 2.16 C1.5879 2.178 1.7656 2.101 1.9218 1.981 C2.0673 1.936 2.1562 1.67 2.1562 1.414 C2.1504 1.23 2.0918 1.049 1.9648 0.918 C1.8125 0.8 1.6728 0.719 1.4726 0.719 C1.2441 0.8 1.1054 0.765 0.9726 0.856 C0.8125 0.98 0.7548 1.078 0.7187 1.258 L0 1.258 C0.0361 0.928 0.2382 0.551 0.4961 0.332 C0.7187 0.154 1.0742 0 1.457 0 C1.6972 0.07 1.9629 0.061 2.1875 0.18 C2.3955 0.308 2.582 0.459 2.6992 0.664 C2.7968 0.886 2.875 1.089 2.875 1.32 C2.7968 1.589 2.8144 1.742 2.6953 1.922 C2.5566 2.115 2.3984 2.245 2.164 2.352 C2.4609 2.459 2.7226 2.568 2.9257 2.789 C3.1191 3.066 3.2343 3.281 3.2343 3.609 C3.2031 4.092 3.0761 4.437 2.7617 4.746 C2.4082 5.128 2.0517 5.211 1.5703 5.211 C1.0781 5.211 0.7783 5.078 0.4922 4.813 C0.1718 4.594 0.041 4.198 0 3.774 Z" transform="translate(12.458, 71.093)"/>
   <path style="fill:none;stroke:#000000; stroke-width:0.599988; stroke-linecap:round; stroke-linejoin:miter; stroke-dasharray:none;" d="M7.4394 0 L0 4.319 " transform="translate(24.6992, 64.184)"/>
   <path style="fill:#161413; fill-rule:evenodd;stroke:none;" d="M5.043 4.352 L5.9883 4.555 C5.7578 5.325 5.4687 5.878 4.9844 6.274 C4.458 6.698 3.915 6.864 3.2226 6.864 C2.458 6.864 1.9101 6.719 1.457 6.43 C0.9707 6.2 0.6621 5.717 0.4258 5.165 C0.166 4.679 0.0742 4.019 0.0742 3.383 C0 2.768 0.2041 2.088 0.4648 1.575 C0.6875 1.075 1.0957 0.671 1.5781 0.403 C1.9844 0.206 2.5879 0 3.1641 0 C3.7988 0.039 4.3721 0.18 4.8203 0.54 C5.1953 0.921 5.5791 1.398 5.7539 2.043 L4.8086 2.231 C4.5937 1.831 4.4502 1.461 4.1719 1.258 C3.8691 1.088 3.543 0.95 3.1211 0.95 C2.6299 1.004 2.2314 1.063 1.9062 1.29 C1.5625 1.541 1.3516 1.821 1.2187 2.204 C1.0469 2.637 1.0195 2.976 1.0195 3.379 C0.9629 3.984 1.0996 4.364 1.2617 4.754 C1.3691 5.179 1.6758 5.434 2.0195 5.629 C2.3066 5.901 2.7344 5.918 3.1328 5.918 C3.6035 5.984 4.0234 5.788 4.3594 5.524 C4.6953 5.291 4.9258 4.871 5.043 4.352 Z" transform="translate(29.1777, 74.12)"/>
   <path style="fill:#161413; fill-rule:evenodd;stroke:none;" d="M0 6.864 L0 0 L0.9453 0 L0.9453 2.606 L4.4961 2.606 L4.4961 0 L5.4414 0 L5.4414 6.864 L4.4961 6.864 L4.4961 3.551 L0.9453 3.551 L0.9453 6.864 L0 6.864 Z" transform="translate(37.4101, 74.12)"/>
   <path style="fill:#161413; fill-rule:evenodd;stroke:none;" d="M0 3.774 L0.7188 3.774 C0.7549 4.092 0.8731 4.213 0.9961 4.324 C1.083 4.482 1.3174 4.492 1.5938 4.492 C1.8438 4.565 2.1446 4.4 2.293 4.215 C2.3906 4.112 2.5156 3.801 2.5156 3.527 C2.4737 3.331 2.4336 3.055 2.2696 2.883 C2.0625 2.737 1.8955 2.625 1.6406 2.625 C1.5362 2.654 1.4072 2.649 1.2539 2.695 L1.3125 2.156 C1.291 2.178 1.376 2.16 1.3946 2.16 C1.5879 2.178 1.7656 2.101 1.9219 1.981 C2.0674 1.936 2.1563 1.67 2.1563 1.414 C2.1504 1.23 2.0918 1.049 1.9649 0.918 C1.8125 0.8 1.6729 0.719 1.4727 0.719 C1.2442 0.8 1.1055 0.765 0.9727 0.856 C0.8125 0.98 0.7549 1.078 0.7188 1.258 L0 1.258 C0.0362 0.928 0.2383 0.551 0.4961 0.332 C0.7188 0.154 1.0742 0 1.4571 0 C1.6973 0.07 1.9629 0.061 2.1875 0.18 C2.3955 0.308 2.5821 0.459 2.6992 0.664 C2.7969 0.886 2.875 1.089 2.875 1.32 C2.7969 1.589 2.8145 1.742 2.6953 1.922 C2.5567 2.115 2.3985 2.245 2.1641 2.352 C2.461 2.459 2.7227 2.568 2.9258 2.789 C3.1192 3.065 3.2344 3.281 3.2344 3.609 C3.2031 4.092 3.0762 4.437 2.7617 4.746 C2.4082 5.128 2.0518 5.211 1.5703 5.211 C1.0781 5.211 0.7783 5.078 0.4922 4.813 C0.1719 4.594 0.041 4.198 0 3.774 Z" transform="translate(44.6181, 78.053)"/>
   <path style="fill:none;stroke:#000000; stroke-width:0.599988; stroke-linecap:round; stroke-linejoin:miter; stroke-dasharray:none;" d="M0 0 L0 7.08 " transform="translate(32.1386, 64.184)"/>
   <path style="fill:none;stroke:#000000; stroke-width:0.599988; stroke-linecap:round; stroke-linejoin:miter; stroke-dasharray:none;" d="M0 0 L12.12 6.96 " transform="translate(56.0188, 64.184)"/>
   <path style="fill:none;stroke:#000000; stroke-width:0.599988; stroke-linecap:round; stroke-linejoin:miter; stroke-dasharray:none;" d="M0 6.96 L11.88 0 " transform="translate(68.1388, 64.184)"/>
   <path style="fill:none;stroke:#000000; stroke-width:0.599988; stroke-linecap:round; stroke-linejoin:miter; stroke-dasharray:none;" d="M0 5.28 L8.88 0 " transform="translate(68.3788, 62.864)"/>
   <path style="fill:none;stroke:#000000; stroke-width:0.599988; stroke-linecap:round; stroke-linejoin:miter; stroke-dasharray:none;" d="M0 13.8 L0 0 " transform="translate(80.0188, 50.384)"/>
   <path style="fill:none;stroke:#000000; stroke-width:0.599988; stroke-linecap:round; stroke-linejoin:miter; stroke-dasharray:none;" d="M12 6.841 L0 0 " transform="translate(68.0188, 43.543)"/>
   <path style="fill:none;stroke:#000000; stroke-width:0.599988; stroke-linecap:round; stroke-linejoin:miter; stroke-dasharray:none;" d="M9 5.16 L0 0 " transform="translate(68.2588, 46.543)"/>
   <path style="fill:none;stroke:#000000; stroke-width:0.599988; stroke-linecap:round; stroke-linejoin:miter; stroke-dasharray:none;" d="M0 6.841 L12 0 " transform="translate(56.0188, 43.543)"/>
   <path style="fill:#161413; fill-rule:evenodd;stroke:none;" d="M0.074 3.52 C0 2.449 0.371 1.557 0.964 0.934 C1.523 0.371 2.33 0 3.273 0 C3.83 0.038 4.442 0.148 4.937 0.442 C5.406 0.791 5.813 1.141 6.074 1.664 C6.259 2.254 6.464 2.781 6.464 3.445 C6.426 4.174 6.326 4.719 6.05 5.25 C5.71 5.819 5.388 6.184 4.886 6.457 C4.375 6.78 3.847 6.863 3.269 6.863 C2.585 6.863 2.079 6.713 1.582 6.41 C1.009 6.176 0.711 5.697 0.457 5.176 C0.166 4.718 0.074 4.104 0.074 3.52 Z M1.019 3.524 C0.962 4.296 1.232 4.851 1.66 5.277 C2.067 5.733 2.622 5.918 3.265 5.918 C3.867 5.983 4.46 5.702 4.882 5.27 C5.293 4.869 5.515 4.227 5.515 3.438 C5.46 2.994 5.423 2.498 5.242 2.125 C5.015 1.832 4.797 1.464 4.449 1.258 C4.067 1.088 3.709 0.949 3.277 0.949 C2.601 1.004 2.128 1.148 1.683 1.543 C1.212 1.96 1.019 2.597 1.019 3.524 Z" transform="translate(64.8178, 25.76)"/>
   <path style="fill:#161413; fill-rule:evenodd;stroke:none;" d="M0 6.863 L0 0 L0.945 0 L0.945 2.606 L4.496 2.606 L4.496 0 L5.441 0 L5.441 6.863 L4.496 6.863 L4.496 3.551 L0.945 3.551 L0.945 6.863 L0 6.863 Z" transform="translate(73.7698, 25.76)"/>
   <path style="fill:none;stroke:#000000; stroke-width:0.599988; stroke-linecap:round; stroke-linejoin:miter; stroke-dasharray:none;" d="M0 9.239 L0 0 " transform="translate(68.0188, 34.304)"/>
   <path style="fill:none;stroke:#000000; stroke-width:0.599988; stroke-linecap:round; stroke-linejoin:miter; stroke-dasharray:none;" d="M0 0 L12 6.96 " transform="translate(80.0188, 64.184)"/>
   <path style="fill:none;stroke:#000000; stroke-width:0.599988; stroke-linecap:round; stroke-linejoin:miter; stroke-dasharray:none;" d="M0 6.96 L12 0 " transform="translate(92.0188, 64.184)"/>
   <path style="fill:none;stroke:#000000; stroke-width:0.599988; stroke-linecap:round; stroke-linejoin:miter; stroke-dasharray:none;" d="M0 0 L11.88 6.96 " transform="translate(104.019, 64.184)"/>
   <path style="fill:none;stroke:#000000; stroke-width:0.599988; stroke-linecap:round; stroke-linejoin:miter; stroke-dasharray:none;" d="M0 6.96 L12 0 " transform="translate(115.899, 64.184)"/>
   <path style="fill:#161413; fill-rule:evenodd;stroke:none;" d="M5.043 4.352 L5.988 4.555 C5.757 5.325 5.468 5.878 4.984 6.274 C4.458 6.698 3.915 6.864 3.222 6.864 C2.458 6.864 1.91 6.719 1.457 6.43 C0.97 6.2 0.662 5.717 0.425 5.165 C0.166 4.679 0.074 4.019 0.074 3.383 C0 2.768 0.204 2.088 0.465 1.575 C0.687 1.075 1.095 0.671 1.578 0.403 C1.984 0.206 2.588 0 3.164 0 C3.798 0.039 4.372 0.18 4.82 0.54 C5.195 0.921 5.579 1.398 5.754 2.043 L4.808 2.231 C4.593 1.831 4.45 1.461 4.172 1.258 C3.869 1.088 3.543 0.95 3.121 0.95 C2.63 1.004 2.231 1.063 1.906 1.29 C1.562 1.542 1.351 1.821 1.218 2.204 C1.047 2.637 1.019 2.976 1.019 3.379 C0.963 3.984 1.099 4.364 1.261 4.754 C1.369 5.179 1.675 5.434 2.019 5.629 C2.306 5.901 2.734 5.918 3.132 5.918 C3.603 5.984 4.023 5.788 4.359 5.524 C4.695 5.292 4.925 4.871 5.043 4.352 Z" transform="translate(136.938, 67.16)"/>
   <path style="fill:#161413; fill-rule:evenodd;stroke:none;" d="M0 6.864 L0 0 L0.945 0 L0.945 2.606 L4.496 2.606 L4.496 0 L5.441 0 L5.441 6.864 L4.496 6.864 L4.496 3.551 L0.945 3.551 L0.945 6.864 L0 6.864 Z" transform="translate(145.17, 67.16)"/>
   <path style="fill:#161413; fill-rule:evenodd;stroke:none;" d="M0 3.774 L0.719 3.774 C0.755 4.092 0.873 4.213 0.996 4.324 C1.083 4.483 1.317 4.492 1.594 4.492 C1.844 4.566 2.145 4.4 2.293 4.215 C2.391 4.112 2.516 3.801 2.516 3.527 C2.474 3.331 2.434 3.055 2.27 2.883 C2.063 2.737 1.896 2.625 1.641 2.625 C1.536 2.654 1.407 2.649 1.254 2.695 L1.313 2.156 C1.291 2.178 1.376 2.16 1.395 2.16 C1.588 2.178 1.766 2.101 1.922 1.981 C2.067 1.936 2.156 1.67 2.156 1.414 C2.15 1.23 2.092 1.049 1.965 0.918 C1.813 0.8 1.673 0.719 1.473 0.719 C1.244 0.8 1.106 0.765 0.973 0.856 C0.813 0.98 0.755 1.078 0.719 1.258 L0 1.258 C0.036 0.928 0.238 0.551 0.496 0.332 C0.719 0.154 1.074 0 1.457 0 C1.697 0.07 1.963 0.061 2.188 0.18 C2.396 0.308 2.582 0.459 2.699 0.664 C2.797 0.886 2.875 1.089 2.875 1.32 C2.797 1.589 2.815 1.742 2.695 1.922 C2.557 2.115 2.399 2.245 2.164 2.352 C2.461 2.459 2.723 2.568 2.926 2.789 C3.119 3.066 3.234 3.281 3.234 3.609 C3.203 4.092 3.076 4.437 2.762 4.746 C2.408 5.128 2.052 5.211 1.57 5.211 C1.078 5.211 0.778 5.078 0.492 4.813 C0.172 4.594 0.041 4.198 0 3.774 Z" transform="translate(152.378, 71.093)"/>
   <path style="fill:none;stroke:#000000; stroke-width:0.599988; stroke-linecap:round; stroke-linejoin:miter; stroke-dasharray:none;" d="M0 0 L6.6 3.84 " transform="translate(127.899, 64.184)"/>
   <path style="fill:#161413; fill-rule:evenodd;stroke:none;" d="M0 6.863 L0 0 L0.9453 0 L0.9453 2.606 L4.4958 2.606 L4.4958 0 L5.4418 0 L5.4418 6.863 L4.4958 6.863 L4.4958 3.551 L0.9453 3.551 L0.9453 6.863 L0 6.863 Z" transform="translate(51.33, 29.72)"/>
   <path style="fill:none;stroke:#000000; stroke-width:0.599988; stroke-linecap:round; stroke-linejoin:miter; stroke-dasharray:none;" d="M0 0 L0.5997 0.601 " transform="translate(45.4589, 41.503)"/>
   <path style="fill:none;stroke:#000000; stroke-width:0.599988; stroke-linecap:round; stroke-linejoin:miter; stroke-dasharray:none;" d="M0 0 L1.2002 1.08 " transform="translate(46.8984, 39.583)"/>
   <path style="fill:none;stroke:#000000; stroke-width:0.599988; stroke-linecap:round; stroke-linejoin:miter; stroke-dasharray:none;" d="M0 0 L1.6797 1.681 " transform="translate(48.3388, 37.543)"/>
   <path style="fill:#161413; fill-rule:evenodd;stroke:none;" d="M0 6.863 L0 0 L0.9453 0 L0.9453 2.605 L4.4961 2.605 L4.4961 0 L5.4414 0 L5.4414 6.863 L4.4961 6.863 L4.4961 3.55 L0.9453 3.55 L0.9453 6.863 L0 6.863 Z" transform="translate(19.7695, 56.241)"/>
   <path style="fill:#000000; fill-rule:evenodd;stroke:none;" d="M5.8799 0 L6.3604 0.479 L1.8008 6.359 L0.96 5.519 L0 4.559 " transform="translate(26.0185, 50.144)"/>
  </g>
 </g>
</svg>
