<?xml version="1.0" standalone="yes"?>
<!DOCTYPE svg PUBLIC "-//W3C//DTD SVG 20010904//EN" "http://www.w3.org/TR/2001/REC-SVG-20010904/DTD/svg10.dtd">
<svg width="180" height="180" xmlns="http://www.w3.org/2000/svg" version="1.0" zoomAndPan="magnify" preserveAspectRatio="xMidyMid" contentScriptType="" contentStyleType="" id="svg1" xmlns:xlink="http://www.w3.org/1999/xlink">
	<desc content="structured text">C65NS2</desc>
	<!-- C65NS2 -->
		<text x="116.572" y="124.991" fill="#000000" font-family="Helvetica" font-size="6pt" text-anchor="middle" font-weight="bold">S</text>
	<text x="76.3674" y="83.6705" fill="#000000" font-family="Helvetica" font-size="6pt" text-anchor="middle" font-weight="bold">N</text>
	<text x="81.2609" y="33.4206" fill="#000000" font-family="Helvetica" font-size="6pt" text-anchor="middle" font-weight="bold">S</text>
	<line x1="122.777" y1="109.336" x2="129.741" y2="115.639" stroke="#000000" stroke-width="0.759266"/>
	<line x1="122.124" y1="112.158" x2="126.998" y2="116.57" stroke="#000000" stroke-width="0.759266"/>
	<line x1="129.741" y1="115.639" x2="138.261" y2="113.843" stroke="#000000" stroke-width="0.759266"/>
	<line x1="138.261" y1="113.843" x2="144.075" y2="120.324" stroke="#000000" stroke-width="0.759266"/>
	<line x1="144.075" y1="120.324" x2="152.596" y2="118.529" stroke="#000000" stroke-width="0.759266"/>
	<line x1="152.596" y1="118.529" x2="158.411" y2="125.009" stroke="#000000" stroke-width="0.759266"/>
	<line x1="158.411" y1="125.009" x2="166.931" y2="123.213" stroke="#000000" stroke-width="0.759266"/>
	<line x1="129.741" y1="115.639" x2="125.913" y2="124.215" stroke="#000000" stroke-width="0.759266"/>
	<line x1="125.913" y1="124.215" x2="130.267" y2="131.756" stroke="#000000" stroke-width="0.759266"/>
	<line x1="130.267" y1="131.756" x2="125.913" y2="139.296" stroke="#000000" stroke-width="0.759266"/>
	<line x1="125.913" y1="139.296" x2="130.267" y2="146.837" stroke="#000000" stroke-width="0.759266"/>
	<line x1="130.267" y1="146.837" x2="125.913" y2="154.378" stroke="#000000" stroke-width="0.759266"/>
	<line x1="125.913" y1="154.378" x2="130.267" y2="161.919" stroke="#000000" stroke-width="0.759266"/>
	<line x1="130.267" y1="161.919" x2="125.913" y2="169.459" stroke="#000000" stroke-width="0.759266"/>
	<line x1="125.913" y1="169.459" x2="130.267" y2="177" stroke="#000000" stroke-width="0.759266"/>
	<line x1="125.913" y1="124.215" x2="120.152" y2="123.614" stroke="#000000" stroke-width="0.759266"/>
	<line x1="115.567" y1="118.574" x2="114.596" y2="114.06" stroke="#000000" stroke-width="0.759266"/>
	<line x1="122.777" y1="109.336" x2="114.596" y2="114.06" stroke="#000000" stroke-width="0.759266"/>
	<line x1="114.596" y1="114.06" x2="106.45" y2="109.274" stroke="#000000" stroke-width="0.759266"/>
	<line x1="114.656" y1="111.16" x2="108.954" y2="107.81" stroke="#000000" stroke-width="0.759266"/>
	<line x1="106.45" y1="109.274" x2="98.369" y2="113.172" stroke="#000000" stroke-width="0.759266"/>
	<line x1="98.369" y1="113.172" x2="90.7031" y2="108.322" stroke="#000000" stroke-width="0.759266"/>
	<line x1="98.5723" y1="110.306" x2="93.2061" y2="106.911" stroke="#000000" stroke-width="0.759266"/>
	<line x1="90.7031" y1="108.322" x2="91.1393" y2="99.2611" stroke="#000000" stroke-width="0.759266"/>
	<line x1="91.1393" y1="99.2611" x2="83.7756" y2="94.7516" stroke="#000000" stroke-width="0.759266"/>
	<line x1="83.7756" y1="94.7516" x2="83.8923" y2="86.1174" stroke="#000000" stroke-width="0.759266"/>
	<line x1="86.3237" y1="93.4907" x2="86.4054" y2="87.4467" stroke="#000000" stroke-width="0.759266"/>
	<line x1="83.8923" y1="86.1174" x2="79.9477" y2="83.9174" stroke="#000000" stroke-width="0.759266"/>
	<line x1="76.2464" y1="77.2538" x2="76.1436" y2="73.288" stroke="#000000" stroke-width="0.759266"/>
	<line x1="78.7782" y1="77.2538" x2="78.7072" y2="74.5173" stroke="#000000" stroke-width="0.759266"/>
	<line x1="76.1436" y1="73.288" x2="83.4525" y2="68.6888" stroke="#000000" stroke-width="0.759266"/>
	<line x1="83.4525" y1="68.6888" x2="91.3762" y2="73.1026" stroke="#000000" stroke-width="0.759266"/>
	<line x1="85.8727" y1="67.1399" x2="91.4192" y2="70.2295" stroke="#000000" stroke-width="0.759266"/>
	<line x1="91.3762" y1="73.1026" x2="91.3762" y2="81.8099" stroke="#000000" stroke-width="0.759266"/>
	<line x1="83.8923" y1="86.1174" x2="91.3762" y2="81.8099" stroke="#000000" stroke-width="0.759266"/>
	<line x1="91.3762" y1="81.8099" x2="98.9167" y2="86.1636" stroke="#000000" stroke-width="0.759266"/>
	<line x1="93.7727" y1="80.2712" x2="99.0511" y2="83.3187" stroke="#000000" stroke-width="0.759266"/>
	<line x1="98.9167" y1="86.1636" x2="98.7765" y2="95.2322" stroke="#000000" stroke-width="0.759266"/>
	<line x1="91.1393" y1="99.2611" x2="98.7765" y2="95.2322" stroke="#000000" stroke-width="0.759266"/>
	<line x1="98.7765" y1="95.2322" x2="106.597" y2="99.8271" stroke="#000000" stroke-width="0.759266"/>
	<line x1="101.232" y1="93.7394" x2="106.706" y2="96.9558" stroke="#000000" stroke-width="0.759266"/>
	<line x1="106.45" y1="109.274" x2="106.597" y2="99.8271" stroke="#000000" stroke-width="0.759266"/>
	<line x1="106.597" y1="99.8271" x2="114.451" y2="95.2923" stroke="#000000" stroke-width="0.759266"/>
	<line x1="114.451" y1="95.2923" x2="114.381" y2="86.2228" stroke="#000000" stroke-width="0.759266"/>
	<line x1="114.381" y1="86.2228" x2="121.689" y2="81.6236" stroke="#000000" stroke-width="0.759266"/>
	<line x1="121.689" y1="81.6236" x2="121.466" y2="72.9911" stroke="#000000" stroke-width="0.759266"/>
	<line x1="119.125" y1="80.394" x2="118.969" y2="74.3513" stroke="#000000" stroke-width="0.759266"/>
	<line x1="121.466" y1="72.9911" x2="113.93" y2="68.775" stroke="#000000" stroke-width="0.759266"/>
	<line x1="113.93" y1="68.775" x2="113.865" y2="60.0686" stroke="#000000" stroke-width="0.759266"/>
	<line x1="113.865" y1="60.0686" x2="121.374" y2="55.6592" stroke="#000000" stroke-width="0.759266"/>
	<line x1="121.374" y1="55.6592" x2="121.309" y2="46.9519" stroke="#000000" stroke-width="0.759266"/>
	<line x1="121.309" y1="46.9519" x2="128.818" y2="42.5425" stroke="#000000" stroke-width="0.759266"/>
	<line x1="128.818" y1="42.5425" x2="128.753" y2="33.8352" stroke="#000000" stroke-width="0.759266"/>
	<line x1="128.753" y1="33.8352" x2="136.262" y2="29.4258" stroke="#000000" stroke-width="0.759266"/>
	<line x1="113.93" y1="68.775" x2="106.457" y2="73.1026" stroke="#000000" stroke-width="0.759266"/>
	<line x1="106.457" y1="73.1026" x2="98.9167" y2="68.7489" stroke="#000000" stroke-width="0.759266"/>
	<line x1="104.061" y1="74.6413" x2="98.7823" y2="71.5938" stroke="#000000" stroke-width="0.759266"/>
	<line x1="91.3762" y1="73.1026" x2="98.9167" y2="68.7489" stroke="#000000" stroke-width="0.759266"/>
	<line x1="98.9167" y1="68.7489" x2="99.056" y2="59.6803" stroke="#000000" stroke-width="0.759266"/>
	<line x1="99.056" y1="59.6803" x2="91.2369" y2="55.0845" stroke="#000000" stroke-width="0.759266"/>
	<line x1="96.6007" y1="61.1728" x2="91.1273" y2="57.9558" stroke="#000000" stroke-width="0.759266"/>
	<line x1="91.2369" y1="55.0845" x2="91.3823" y2="45.638" stroke="#000000" stroke-width="0.759266"/>
	<line x1="91.3823" y1="45.638" x2="83.2375" y2="40.8516" stroke="#000000" stroke-width="0.759266"/>
	<line x1="88.8783" y1="47.102" x2="83.1769" y2="43.7515" stroke="#000000" stroke-width="0.759266"/>
	<line x1="83.2375" y1="40.8516" x2="81.9666" y2="34.9483" stroke="#000000" stroke-width="0.759266"/>
	<line x1="77.6809" y1="31.2975" x2="71.9206" y2="30.6971" stroke="#000000" stroke-width="0.759266"/>
	<line x1="71.9206" y1="30.6971" x2="66.3" y2="22.6898" stroke="#000000" stroke-width="0.759266"/>
	<line x1="66.3" y1="22.6898" x2="56.5626" y2="23.6294" stroke="#000000" stroke-width="0.759266"/>
	<line x1="56.5626" y1="23.6294" x2="50.7087" y2="15.2895" stroke="#000000" stroke-width="0.759266"/>
	<line x1="50.7087" y1="15.2895" x2="40.5655" y2="16.2673" stroke="#000000" stroke-width="0.759266"/>
	<line x1="40.5655" y1="16.2673" x2="35.4813" y2="9.19873" stroke="#000000" stroke-width="0.759266"/>
	<line x1="35.4813" y1="9.19873" x2="26.8176" y2="10.0686" stroke="#000000" stroke-width="0.759266"/>
	<line x1="26.8176" y1="10.0686" x2="21.7325" y2="3" stroke="#000000" stroke-width="0.759266"/>
	<line x1="21.7325" y1="3" x2="13.0687" y2="3.86898" stroke="#000000" stroke-width="0.759266"/>
	<line x1="40.5655" y1="16.2673" x2="36.413" y2="25.5728" stroke="#000000" stroke-width="0.759266"/>
	<line x1="36.413" y1="25.5728" x2="42.4585" y2="33.7751" stroke="#000000" stroke-width="0.759266"/>
	<line x1="42.4585" y1="33.7751" x2="52.5764" y2="32.5622" stroke="#000000" stroke-width="0.759266"/>
	<line x1="56.5626" y1="23.6294" x2="52.5764" y2="32.5622" stroke="#000000" stroke-width="0.759266"/>
	<line x1="52.5764" y1="32.5622" x2="58.3798" y2="40.4371" stroke="#000000" stroke-width="0.759266"/>
	<line x1="58.3798" y1="40.4371" x2="68.0928" y2="39.2729" stroke="#000000" stroke-width="0.759266"/>
	<line x1="71.9206" y1="30.6971" x2="68.0928" y2="39.2729" stroke="#000000" stroke-width="0.759266"/>
	<line x1="68.0928" y1="39.2729" x2="75.0561" y2="45.5753" stroke="#000000" stroke-width="0.759266"/>
	<line x1="70.8357" y1="38.3418" x2="75.7099" y2="42.7535" stroke="#000000" stroke-width="0.759266"/>
	<line x1="83.2375" y1="40.8516" x2="75.0561" y2="45.5753" stroke="#000000" stroke-width="0.759266"/>
	<line x1="75.0561" y1="45.5753" x2="75.1283" y2="55.0227" stroke="#000000" stroke-width="0.759266"/>
	<line x1="75.1283" y1="55.0227" x2="83.382" y2="59.6193" stroke="#000000" stroke-width="0.759266"/>
	<line x1="77.5978" y1="53.5011" x2="83.3754" y2="56.7187" stroke="#000000" stroke-width="0.759266"/>
	<line x1="91.2369" y1="55.0845" x2="83.382" y2="59.6193" stroke="#000000" stroke-width="0.759266"/>
	<line x1="83.4525" y1="68.6888" x2="83.382" y2="59.6193" stroke="#000000" stroke-width="0.759266"/>
	<line x1="106.457" y1="73.1026" x2="106.457" y2="81.8099" stroke="#000000" stroke-width="0.759266"/>
	<line x1="114.381" y1="86.2228" x2="106.457" y2="81.8099" stroke="#000000" stroke-width="0.759266"/>
	<line x1="114.424" y1="83.3497" x2="108.877" y2="80.2607" stroke="#000000" stroke-width="0.759266"/>
	<line x1="98.9167" y1="86.1636" x2="106.457" y2="81.8099" stroke="#000000" stroke-width="0.759266"/>
	<line x1="114.451" y1="95.2923" x2="122.704" y2="99.8898" stroke="#000000" stroke-width="0.759266"/>
	<line x1="114.457" y1="98.1929" x2="120.235" y2="101.411" stroke="#000000" stroke-width="0.759266"/>
	<line x1="122.777" y1="109.336" x2="122.704" y2="99.8898" stroke="#000000" stroke-width="0.759266"/>
</svg>
