<?xml version="1.0" encoding="UTF-8" standalone="no"?>
<svg
   xmlns:dc="http://purl.org/dc/elements/1.1/"
   xmlns:cc="http://creativecommons.org/ns#"
   xmlns:rdf="http://www.w3.org/1999/02/22-rdf-syntax-ns#"
   xmlns:svg="http://www.w3.org/2000/svg"
   xmlns="http://www.w3.org/2000/svg"
   xmlns:sodipodi="http://sodipodi.sourceforge.net/DTD/sodipodi-0.dtd"
   xmlns:inkscape="http://www.inkscape.org/namespaces/inkscape"
   height="33.08105mm"
   version="1.0"
   viewBox="0 0 81 125"
   width="21.43652mm"
   id="svg2816"
   inkscape:version="0.47 r22583"
   sodipodi:docname="NH2.svg">
  <metadata
     id="metadata2870">
    <rdf:RDF>
      <cc:Work
         rdf:about="">
        <dc:format>image/svg+xml</dc:format>
        <dc:type
           rdf:resource="http://purl.org/dc/dcmitype/StillImage" />
      </cc:Work>
    </rdf:RDF>
  </metadata>
  <defs
     id="defs2868">
    <inkscape:perspective
       sodipodi:type="inkscape:persp3d"
       inkscape:vp_x="0 : 58.608162 : 1"
       inkscape:vp_y="0 : 1000 : 0"
       inkscape:vp_z="75.956169 : 58.608162 : 1"
       inkscape:persp3d-origin="37.978085 : 39.072108 : 1"
       id="perspective2872" />
  </defs>
  <sodipodi:namedview
     pagecolor="#ffffff"
     bordercolor="#666666"
     borderopacity="1"
     objecttolerance="10"
     gridtolerance="10"
     guidetolerance="10"
     inkscape:pageopacity="0"
     inkscape:pageshadow="2"
     inkscape:window-width="640"
     inkscape:window-height="483"
     id="namedview2866"
     showgrid="false"
     inkscape:zoom="2.0133715"
     inkscape:cx="37.978085"
     inkscape:cy="58.608162"
     inkscape:window-x="0"
     inkscape:window-y="0"
     inkscape:window-maximized="0"
     inkscape:current-layer="g2818" />
  <g
     font-size="12pt"
     transform="translate(-137.94068,-40)"
     id="g2818"
     style="font-size:15px;stroke-linecap:round;font-family:Helvetica">
    <g
       id="g2820"
       style="stroke:#000000;stroke-width:1">
      <line
         x1="142.09"
         x2="142.09"
         y1="82.68"
         y2="109.13"
         id="line2822" />
    </g>
    <g
       id="g2824"
       style="stroke:#000000;stroke-width:1">
      <line
         x1="165"
         x2="142.09"
         y1="69.449997"
         y2="82.68"
         id="line2826" />
    </g>
    <g
       id="g2828"
       style="stroke:#000000;stroke-width:1">
      <line
         x1="165"
         x2="187.91"
         y1="148.81"
         y2="162.03"
         id="line2830" />
    </g>
    <g
       id="g2832"
       style="stroke:#000000;stroke-width:1">
      <line
         x1="187.91"
         x2="203"
         y1="109.13"
         y2="117.84"
         id="line2834" />
      <line
         x1="192.78999"
         x2="204.11"
         y1="105.02"
         y2="111.56"
         id="line2836" />
    </g>
    <g
       id="g2838"
       style="stroke:#000000;stroke-width:1">
      <line
         x1="165"
         x2="165"
         y1="122.36"
         y2="148.81"
         id="line2840" />
      <line
         x1="159"
         x2="159"
         y1="125.66"
         y2="145.5"
         id="line2842" />
    </g>
    <g
       id="g2844"
       style="stroke:#000000;stroke-width:1">
      <line
         x1="165"
         x2="142.09"
         y1="148.81"
         y2="162.03999"
         id="line2846" />
    </g>
    <g
       id="g2848"
       style="stroke:#000000;stroke-width:1">
      <line
         x1="165"
         x2="165"
         y1="43"
         y2="69.449997"
         id="line2850" />
    </g>
    <g
       id="g2852"
       style="stroke:#000000;stroke-width:1">
      <line
         x1="165"
         x2="187.91"
         y1="69.449997"
         y2="82.68"
         id="line2854" />
    </g>
    <g
       id="g2856"
       style="stroke:#000000;stroke-width:1">
      <line
         x1="142.09"
         x2="165"
         y1="109.13"
         y2="122.36"
         id="line2858" />
    </g>
    <g
       id="g2860"
       style="stroke:#000000;stroke-width:1">
      <line
         x1="187.91"
         x2="187.91"
         y1="82.68"
         y2="109.13"
         id="line2862" />
    </g>
    <g
       style="fill:#000000;font-family:helvetica"
       id="text2864">
      <path
         d="m 205.0251,120.13051 c 0,-1.78222 0.47852,-3.17748 1.43555,-4.18579 0.95703,-1.00829 2.19238,-1.51244 3.70605,-1.51245 0.99121,1e-5 1.88476,0.23682 2.68067,0.71045 0.79589,0.47364 1.40257,1.13404 1.82006,1.9812 0.41747,0.84717 0.62621,1.80786 0.62623,2.88208 -2e-5,1.08887 -0.21974,2.06299 -0.65918,2.92236 -0.43947,0.85938 -1.06203,1.51001 -1.86768,1.9519 -0.80567,0.4419 -1.67481,0.66285 -2.60742,0.66285 -1.01075,0 -1.91407,-0.24414 -2.70996,-0.73243 -0.7959,-0.48828 -1.39893,-1.15478 -1.80908,-1.99951 -0.41016,-0.84472 -0.61524,-1.73827 -0.61524,-2.68066 z m 1.46484,0.022 c 0,1.29395 0.3479,2.31324 1.04371,3.05786 0.69579,0.74463 1.56859,1.11695 2.6184,1.11695 1.06933,0 1.94946,-0.37598 2.64038,-1.12793 0.69091,-0.75195 1.03637,-1.81885 1.03638,-3.20069 -1e-5,-0.87401 -0.14771,-1.63695 -0.44311,-2.28882 -0.29542,-0.65184 -0.72755,-1.15721 -1.29639,-1.51611 -0.56886,-0.35888 -1.20728,-0.53832 -1.91528,-0.53833 -1.00587,1e-5 -1.87135,0.34547 -2.59644,1.03638 -0.7251,0.69092 -1.08765,1.84449 -1.08765,3.46069 z"
         style="fill:#000000;font-family:helvetica"
         id="path2875" />
    </g>
  </g>
</svg>
